<svg id="Component_7_1" data-name="Component 7 – 1" xmlns="http://www.w3.org/2000/svg" width="23" height="23" viewBox="0 0 23 23">
  <circle id="Ellipse_36" data-name="Ellipse 36" cx="11.5" cy="11.5" r="11.5"/>
  <path id="Path_17" data-name="Path 17" d="M6.728-.012a.512.512,0,0,0-.338.1,3.124,3.124,0,0,1,.736.2.868.868,0,0,1,.411.512.506.506,0,0,1-.329.521A1.68,1.68,0,0,1,6.079,1.3C5.207,1.035,4.352.692,3.461.482a3.036,3.036,0,0,0-1.4-.069,2.238,2.238,0,0,0-1.307.832A1.932,1.932,0,0,0,.509,3a1.207,1.207,0,0,0,.9.818c-.142-.183-.388-.37-.32-.635a1.093,1.093,0,0,1,.356-.695A.836.836,0,0,1,2.186,2.4c.891.164,1.755.416,2.637.621.594.128,1.165.347,1.768.457.009.672,0,1.343,0,2.015-.324.283-.644.571-.964.859.32.247.635.5.96.745,0,.955,0,1.91,0,2.87A2.708,2.708,0,0,1,4.6,10.4,2.969,2.969,0,0,1,2.684,9.36a5.728,5.728,0,0,1,.663-.352c.626-.306,1.238-.631,1.869-.923.018-1.5,0-3.011.009-4.515-1.06.452-2.111.923-3.176,1.366A3.263,3.263,0,0,1,3.205,3.479a1.239,1.239,0,0,1,.53-.343,1.557,1.557,0,0,0-.631.11A4.927,4.927,0,0,0,.048,6.8,5.241,5.241,0,0,0,.3,9.264a4.716,4.716,0,0,0,1.864,2.253,5.661,5.661,0,0,0,1.293.58,4.714,4.714,0,0,0,3.2-.553A3.766,3.766,0,0,0,8.136,9.8a5.043,5.043,0,0,0,.411-1.988,5.655,5.655,0,0,0-.32.557,5.309,5.309,0,0,1-1.4,1.576c0-.95-.009-1.905.009-2.856.324-.233.626-.493.95-.722-.3-.311-.64-.576-.955-.868,0-.667.009-1.334,0-2.006a1.994,1.994,0,0,0,1.595-.868,1.867,1.867,0,0,0,.009-1.9A1.712,1.712,0,0,0,7.318.093C7.126.075,6.925-.007,6.728-.012ZM3.3,4.567c.009,1.444,0,2.888,0,4.332l-.736.315a4.82,4.82,0,0,1-.777-1.663A3.657,3.657,0,0,1,2.04,5.188C2.461,4.987,2.881,4.777,3.3,4.567Z" transform="translate(6.998 5.012)" fill="#fff"/>
</svg>
